<?xml version="1.0" standalone="no"?>
<!DOCTYPE svg PUBLIC "-//W3C//DTD SVG 1.1//EN"
  "http://www.w3.org/Graphics/SVG/1.1/DTD/svg11.dtd">
<svg width="566.92px" height="566.92px" version="1.1"
    xmlns="http://www.w3.org/2000/svg"
    xmlns:xlink="http://www.w3.org/1999/xlink">
<desc>Veusz output document</desc>
<defs>
<clipPath id="c0">
<path d="m0,0l566.92,0l0,566.92l-566.92,0l0,-566.92"/>
</clipPath>
<clipPath id="c1">
<path d="m64.25,7.55l495.11,0l0,495.11l-495.11,0l0,-495.11"/>
</clipPath>
</defs>
<g stroke-linejoin="bevel" stroke-linecap="square" stroke="#000000" fill-rule="evenodd">
<g clip-path="url(#c0)">
<g fill="#ffffff" stroke-width="0.66">
<path d="m64.25,7.55l495.11,0l0,495.11l-495.11,0l0,-495.11"/>
</g>
</g>
<g clip-path="url(#c1)">
<g fill="none" stroke="#ff0000" stroke-width="4">
<polyline fill="none" points="64.25,7.55 64.95,7.57 65.66,7.6 66.37,7.67 67.08,7.75 67.78,7.86 68.49,8 69.2,8.16 69.91,8.35 70.61,8.56 71.32,8.79 72.03,9.05 72.73,9.33 73.44,9.64 74.15,9.98 74.86,10.33 75.56,10.72 76.27,11.12 76.98,11.55 77.69,12.01 78.39,12.49 79.1,12.99 79.81,13.52 80.52,14.07 81.22,14.65 81.93,15.25 82.64,15.87 83.34,16.52 84.05,17.2 84.76,17.89 85.47,18.61 86.17,19.35 86.88,20.12 87.59,20.91 88.3,21.73 89,22.56 89.71,23.42 90.42,24.31 91.12,25.21 91.83,26.14 92.54,27.1 93.25,28.07 93.95,29.07 94.66,30.09 95.37,31.13 96.08,32.2 96.78,33.29 97.49,34.4 98.2,35.53 98.91,36.68 99.61,37.86 100.32,39.06 101.03,40.28 101.73,41.52 102.44,42.78 103.15,44.06 103.86,45.37 104.56,46.69 105.27,48.04 105.98,49.41 106.69,50.79 107.39,52.2 108.1,53.63 108.81,55.08 109.51,56.55 110.22,58.04 110.93,59.54 111.64,61.07 112.34,62.62 113.05,64.18 113.76,65.77 114.47,67.37 115.17,69 115.88,70.64 116.59,72.3 117.3,73.98 118,75.67 118.71,77.39 119.42,79.12 120.12,80.87 120.83,82.64 121.54,84.42 122.25,86.22 122.95,88.04 123.66,89.88 124.37,91.73 125.08,93.6 125.78,95.48 126.49,97.38 127.2,99.3 127.91,101.23 128.61,103.17 129.32,105.14 130.03,107.11 130.73,109.11 131.44,111.11 132.15,113.13 132.86,115.17 133.56,117.22 134.27,119.28 134.98,121.36 135.69,123.45 136.39,125.55 137.1,127.67 137.81,129.79 138.51,131.93 139.22,134.09 139.93,136.25 140.64,138.43 141.34,140.62 142.05,142.82 142.76,145.03 143.47,147.26 144.17,149.49 144.88,151.73 145.59,153.99 146.3,156.25 147,158.53 147.71,160.81 148.42,163.11 149.12,165.41 149.83,167.72 150.54,170.04 151.25,172.37 151.95,174.71 152.66,177.05 153.37,179.41 154.08,181.77 154.78,184.13 155.49,186.51 156.2,188.89 156.9,191.28 157.61,193.68 158.32,196.08 159.03,198.48 159.73,200.9 160.44,203.31 161.15,205.74 161.86,208.17 162.56,210.6 163.27,213.04 163.98,215.48 164.69,217.92 165.39,220.37 166.1,222.83 166.81,225.28 167.51,227.74 168.22,230.2 168.93,232.67 169.64,235.13 170.34,237.6 171.05,240.07 171.76,242.54 172.47,245.02 173.17,247.49 173.88,249.97 174.59,252.44 175.29,254.92 176,257.39 176.71,259.87 177.42,262.34 178.12,264.82 178.83,267.29 179.54,269.76 180.25,272.23 180.95,274.7 181.66,277.17 182.37,279.63 183.08,282.09 183.78,284.55 184.49,287.01 185.2,289.46 185.9,291.91 186.61,294.36 187.32,296.8 188.03,299.24 188.73,301.67 189.44,304.1 190.15,306.53 190.86,308.95 191.56,311.36 192.27,313.77 192.98,316.17 193.69,318.57 194.39,320.95 195.1,323.34 195.81,325.71 196.51,328.08 197.22,330.45 197.93,332.8 198.64,335.15 199.34,337.49 200.05,339.82 200.76,342.14 201.47,344.45 202.17,346.75 202.88,349.05 203.59,351.34 204.29,353.61 205,355.88 205.71,358.13 206.42,360.38 207.12,362.62 207.83,364.84 208.54,367.05 209.25,369.26 209.95,371.45 210.66,373.63 211.37,375.79 212.08,377.95 212.78,380.09 213.49,382.22 214.2,384.34 214.9,386.45 215.61,388.54 216.32,390.62 217.03,392.68 217.73,394.73 218.44,396.77 219.15,398.79 219.86,400.8 220.56,402.8 221.27,404.78 221.98,406.74 222.68,408.69 223.39,410.62 224.1,412.54 224.81,414.44 225.51,416.33 226.22,418.2 226.93,420.06 227.64,421.89 228.34,423.71 229.05,425.52 229.76,427.31 230.47,429.08 231.17,430.83 231.88,432.56 232.59,434.28 233.29,435.98 234,437.66 234.71,439.32 235.42,440.97 236.12,442.6 236.83,444.2 237.54,445.79 238.25,447.36 238.95,448.91 239.66,450.44 240.37,451.95 241.07,453.44 241.78,454.92 242.49,456.37 243.2,457.8 243.9,459.21 244.61,460.6 245.32,461.97 246.03,463.32 246.73,464.65 247.44,465.96 248.15,467.24 248.86,468.51 249.56,469.75 250.27,470.98 250.98,472.18 251.68,473.36 252.39,474.51 253.1,475.65 253.81,476.76 254.51,477.86 255.22,478.92 255.93,479.97 256.64,481 257.34,482 258.05,482.98 258.76,483.93 259.47,484.87 260.17,485.78 260.88,486.66 261.59,487.53 262.29,488.37 263,489.19 263.71,489.98 264.42,490.75 265.12,491.5 265.83,492.22 266.54,492.92 267.25,493.6 267.95,494.25 268.66,494.88 269.37,495.48 270.07,496.06 270.78,496.62 271.49,497.15 272.2,497.66 272.9,498.14 273.61,498.6 274.32,499.04 275.03,499.45 275.73,499.83 276.44,500.19 277.15,500.53 277.86,500.84 278.56,501.13 279.27,501.4 279.98,501.63 280.68,501.85 281.39,502.04 282.1,502.2 282.81,502.34 283.51,502.46 284.22,502.55 284.93,502.61 285.64,502.66 286.34,502.67 287.05,502.66 287.76,502.63 288.46,502.57 289.17,502.49 289.88,502.38 290.59,502.25 291.29,502.09 292,501.91 292.71,501.71 293.42,501.47 294.12,501.22 294.83,500.94 295.54,500.63 296.25,500.3 296.95,499.95 297.66,499.57 298.37,499.17 299.07,498.74 299.78,498.29 300.49,497.82 301.2,497.32 301.9,496.79 302.61,496.24 303.32,495.67 304.03,495.07 304.73,494.45 305.44,493.81 306.15,493.14 306.85,492.45 307.56,491.73 308.27,490.99 308.98,490.23 309.68,489.44 310.39,488.63 311.1,487.8 311.81,486.94 312.51,486.06 313.22,485.16 313.93,484.23 314.64,483.28 315.34,482.31 316.05,481.32 316.76,480.3 317.46,479.26 318.17,478.2 318.88,477.11 319.59,476.01 320.29,474.88 321,473.73 321.71,472.56 322.42,471.36 323.12,470.15 323.83,468.91 324.54,467.65 325.24,466.37 325.95,465.07 326.66,463.75 327.37,462.4 328.07,461.04 328.78,459.65 329.49,458.25 330.2,456.82 330.9,455.38 331.61,453.91 332.32,452.43 333.03,450.92 333.73,449.4 334.44,447.86 335.15,446.29 335.85,444.71 336.56,443.11 337.27,441.49 337.98,439.85 338.68,438.19 339.39,436.52 340.1,434.82 340.81,433.11 341.51,431.38 342.22,429.64 342.93,427.87 343.64,426.09 344.34,424.29 345.05,422.48 345.76,420.64 346.46,418.79 347.17,416.93 347.88,415.05 348.59,413.15 349.29,411.24 350,409.31 350.71,407.36 351.42,405.4 352.12,403.43 352.83,401.44 353.54,399.43 354.24,397.42 354.95,395.38 355.66,393.34 356.37,391.28 357.07,389.2 357.78,387.11 358.49,385.01 359.2,382.9 359.9,380.77 360.61,378.63 361.32,376.48 362.03,374.32 362.73,372.14 363.44,369.96 364.15,367.76 364.85,365.55 365.56,363.33 366.27,361.09 366.98,358.85 367.68,356.6 368.39,354.33 369.1,352.06 369.81,349.78 370.51,347.49 371.22,345.19 371.93,342.88 372.63,340.56 373.34,338.23 374.05,335.89 374.76,333.55 375.46,331.2 376.17,328.84 376.88,326.47 377.59,324.1 378.29,321.71 379,319.33 379.71,316.93 380.42,314.53 381.12,312.13 381.83,309.71 382.54,307.3 383.24,304.88 383.95,302.45 384.66,300.02 385.37,297.58 386.07,295.14 386.78,292.69 387.49,290.24 388.2,287.79 388.9,285.34 389.61,282.88 390.32,280.42 391.02,277.95 391.73,275.49 392.44,273.02 393.15,270.55 393.85,268.08 394.56,265.6 395.27,263.13 395.98,260.66 396.68,258.18 397.39,255.7 398.1,253.23 398.81,250.75 399.51,248.28 400.22,245.8 400.93,243.33 401.63,240.86 402.34,238.39 403.05,235.92 403.76,233.45 404.46,230.99 405.17,228.52 405.88,226.06 406.59,223.61 407.29,221.15 408,218.7 408.71,216.26 409.42,213.81 410.12,211.37 410.83,208.94 411.54,206.51 412.24,204.09 412.95,201.67 413.66,199.25 414.37,196.84 415.07,194.44 415.78,192.04 416.49,189.65 417.2,187.27 417.9,184.89 418.61,182.52 419.32,180.16 420.02,177.8 420.73,175.45 421.44,173.11 422.15,170.78 422.85,168.46 423.56,166.14 424.27,163.84 424.98,161.54 425.68,159.25 426.39,156.98 427.1,154.71 427.81,152.45 428.51,150.2 429.22,147.97 429.93,145.74 430.63,143.52 431.34,141.32 432.05,139.13 432.76,136.95 433.46,134.78 434.17,132.62 434.88,130.47 435.59,128.34 436.29,126.22 437,124.11 437.71,122.02 438.41,119.94 439.12,117.87 439.83,115.82 440.54,113.78 441.24,111.75 441.95,109.74 442.66,107.75 443.37,105.77 444.07,103.8 444.78,101.85 445.49,99.91 446.2,97.99 446.9,96.08 447.61,94.19 448.32,92.32 449.02,90.46 449.73,88.62 450.44,86.8 451.15,84.99 451.85,83.2 452.56,81.43 453.27,79.68 453.98,77.94 454.68,76.22 455.39,74.52 456.1,72.83 456.8,71.17 457.51,69.52 458.22,67.89 458.93,66.28 459.63,64.69 460.34,63.11 461.05,61.56 461.76,60.03 462.46,58.51 463.17,57.02 463.88,55.54 464.59,54.09 465.29,52.65 466,51.24 466.71,49.85 467.41,48.47 468.12,47.12 468.83,45.79 469.54,44.48 470.24,43.19 470.95,41.92 471.66,40.67 472.37,39.44 473.07,38.24 473.78,37.06 474.49,35.89 475.2,34.76 475.9,33.64 476.61,32.54 477.32,31.47 478.02,30.42 478.73,29.39 479.44,28.39 480.15,27.4 480.85,26.44 481.56,25.51 482.27,24.59 482.98,23.7 483.68,22.83 484.39,21.99 485.1,21.17 485.8,20.37 486.51,19.6 487.22,18.85 487.93,18.12 488.63,17.41 489.34,16.73 490.05,16.08 490.76,15.45 491.46,14.84 492.17,14.25 492.88,13.69 493.59,13.16 494.29,12.65 495,12.16 495.71,11.7 496.41,11.26 497.12,10.84 497.83,10.45 498.54,10.09 499.24,9.75 499.95,9.43 500.66,9.14 501.37,8.87 502.07,8.63 502.78,8.41 503.49,8.22 504.19,8.05 504.9,7.9 505.61,7.78 506.32,7.69 507.02,7.62 507.73,7.58 508.44,7.56"/>
</g>
<g fill="none" stroke="#0000ff" stroke-dasharray="16,8,4,8,4,8" stroke-width="4">
<polyline fill="none" points="64.25,255.11 64.95,252.64 65.66,250.16 66.37,247.69 67.08,245.21 67.78,242.74 68.49,240.27 69.2,237.8 69.91,235.33 70.61,232.86 71.32,230.4 72.03,227.94 72.73,225.48 73.44,223.02 74.15,220.57 74.86,218.12 75.56,215.67 76.27,213.23 76.98,210.79 77.69,208.36 78.39,205.93 79.1,203.51 79.81,201.09 80.52,198.68 81.22,196.27 81.93,193.87 82.64,191.47 83.34,189.08 84.05,186.7 84.76,184.32 85.47,181.95 86.17,179.59 86.88,177.24 87.59,174.89 88.3,172.56 89,170.23 89.71,167.9 90.42,165.59 91.12,163.29 91.83,160.99 92.54,158.71 93.25,156.43 93.95,154.17 94.66,151.91 95.37,149.67 96.08,147.43 96.78,145.21 97.49,143 98.2,140.8 98.91,138.61 99.61,136.43 100.32,134.26 101.03,132.11 101.73,129.96 102.44,127.83 103.15,125.72 103.86,123.61 104.56,121.52 105.27,119.44 105.98,117.38 106.69,115.33 107.39,113.29 108.1,111.27 108.81,109.27 109.51,107.27 110.22,105.29 110.93,103.33 111.64,101.38 112.34,99.45 113.05,97.53 113.76,95.63 114.47,93.75 115.17,91.88 115.88,90.02 116.59,88.19 117.3,86.37 118,84.56 118.71,82.78 119.42,81.01 120.12,79.26 120.83,77.53 121.54,75.81 122.25,74.11 122.95,72.43 123.66,70.77 124.37,69.13 125.08,67.5 125.78,65.9 126.49,64.31 127.2,62.74 127.91,61.19 128.61,59.66 129.32,58.15 130.03,56.66 130.73,55.19 131.44,53.74 132.15,52.31 132.86,50.91 133.56,49.52 134.27,48.15 134.98,46.8 135.69,45.47 136.39,44.17 137.1,42.88 137.81,41.62 138.51,40.37 139.22,39.15 139.93,37.95 140.64,36.78 141.34,35.62 142.05,34.49 142.76,33.37 143.47,32.29 144.17,31.22 144.88,30.17 145.59,29.15 146.3,28.15 147,27.17 147.71,26.22 148.42,25.29 149.12,24.38 149.83,23.49 150.54,22.63 151.25,21.79 151.95,20.98 152.66,20.18 153.37,19.41 154.08,18.67 154.78,17.95 155.49,17.25 156.2,16.58 156.9,15.93 157.61,15.3 158.32,14.7 159.03,14.12 159.73,13.56 160.44,13.03 161.15,12.53 161.86,12.05 162.56,11.59 163.27,11.16 163.98,10.75 164.69,10.36 165.39,10 166.1,9.67 166.81,9.36 167.51,9.07 168.22,8.81 168.93,8.57 169.64,8.36 170.34,8.17 171.05,8.01 171.76,7.87 172.47,7.76 173.17,7.67 173.88,7.61 174.59,7.57 175.29,7.55 176,7.56 176.71,7.6 177.42,7.66 178.12,7.74 178.83,7.85 179.54,7.99 180.25,8.15 180.95,8.33 181.66,8.54 182.37,8.77 183.08,9.03 183.78,9.31 184.49,9.62 185.2,9.95 185.9,10.3 186.61,10.68 187.32,11.09 188.03,11.52 188.73,11.97 189.44,12.45 190.15,12.95 190.86,13.48 191.56,14.03 192.27,14.6 192.98,15.2 193.69,15.82 194.39,16.47 195.1,17.14 195.81,17.83 196.51,18.55 197.22,19.29 197.93,20.06 198.64,20.85 199.34,21.66 200.05,22.5 200.76,23.35 201.47,24.24 202.17,25.14 202.88,26.07 203.59,27.02 204.29,27.99 205,28.99 205.71,30.01 206.42,31.05 207.12,32.11 207.83,33.2 208.54,34.31 209.25,35.44 209.95,36.59 210.66,37.77 211.37,38.96 212.08,40.18 212.78,41.42 213.49,42.68 214.2,43.96 214.9,45.26 215.61,46.59 216.32,47.93 217.03,49.3 217.73,50.68 218.44,52.09 219.15,53.52 219.86,54.96 220.56,56.43 221.27,57.92 221.98,59.42 222.68,60.95 223.39,62.49 224.1,64.06 224.81,65.64 225.51,67.25 226.22,68.87 226.93,70.51 227.64,72.17 228.34,73.84 229.05,75.54 229.76,77.25 230.47,78.98 231.17,80.73 231.88,82.5 232.59,84.28 233.29,86.08 234,87.9 234.71,89.73 235.42,91.58 236.12,93.45 236.83,95.33 237.54,97.23 238.25,99.14 238.95,101.07 239.66,103.02 240.37,104.98 241.07,106.96 241.78,108.95 242.49,110.95 243.2,112.97 243.9,115.01 244.61,117.05 245.32,119.12 246.03,121.19 246.73,123.28 247.44,125.38 248.15,127.5 248.86,129.62 249.56,131.76 250.27,133.92 250.98,136.08 251.68,138.26 252.39,140.45 253.1,142.65 253.81,144.86 254.51,147.08 255.22,149.31 255.93,151.55 256.64,153.81 257.34,156.07 258.05,158.35 258.76,160.63 259.47,162.92 260.17,165.22 260.88,167.54 261.59,169.86 262.29,172.18 263,174.52 263.71,176.87 264.42,179.22 265.12,181.58 265.83,183.95 266.54,186.32 267.25,188.7 267.95,191.09 268.66,193.48 269.37,195.88 270.07,198.29 270.78,200.7 271.49,203.12 272.2,205.54 272.9,207.97 273.61,210.4 274.32,212.84 275.03,215.28 275.73,217.73 276.44,220.18 277.15,222.63 277.86,225.09 278.56,227.54 279.27,230.01 279.98,232.47 280.68,234.94 281.39,237.4 282.1,239.87 282.81,242.35 283.51,244.82 284.22,247.29 284.93,249.77 285.64,252.24 286.34,254.72 287.05,257.19 287.76,259.67 288.46,262.14 289.17,264.62 289.88,267.09 290.59,269.56 291.29,272.03 292,274.5 292.71,276.97 293.42,279.44 294.12,281.9 294.83,284.36 295.54,286.81 296.25,289.27 296.95,291.72 297.66,294.16 298.37,296.61 299.07,299.05 299.78,301.48 300.49,303.91 301.2,306.33 301.9,308.75 302.61,311.17 303.32,313.58 304.03,315.98 304.73,318.37 305.44,320.76 306.15,323.15 306.85,325.53 307.56,327.9 308.27,330.26 308.98,332.61 309.68,334.96 310.39,337.3 311.1,339.63 311.81,341.95 312.51,344.27 313.22,346.57 313.93,348.87 314.64,351.15 315.34,353.43 316.05,355.7 316.76,357.95 317.46,360.2 318.17,362.44 318.88,364.66 319.59,366.88 320.29,369.08 321,371.27 321.71,373.45 322.42,375.62 323.12,377.78 323.83,379.92 324.54,382.05 325.24,384.17 325.95,386.28 326.66,388.37 327.37,390.45 328.07,392.52 328.78,394.57 329.49,396.61 330.2,398.63 330.9,400.64 331.61,402.64 332.32,404.62 333.03,406.58 333.73,408.53 334.44,410.47 335.15,412.39 335.85,414.29 336.56,416.18 337.27,418.05 337.98,419.91 338.68,421.75 339.39,423.57 340.1,425.38 340.81,427.16 341.51,428.94 342.22,430.69 342.93,432.43 343.64,434.14 344.34,435.85 345.05,437.53 345.76,439.19 346.46,440.84 347.17,442.47 347.88,444.08 348.59,445.67 349.29,447.24 350,448.79 350.71,450.32 351.42,451.83 352.12,453.33 352.83,454.8 353.54,456.25 354.24,457.69 354.95,459.1 355.66,460.49 356.37,461.86 357.07,463.21 357.78,464.54 358.49,465.85 359.2,467.14 359.9,468.41 360.61,469.66 361.32,470.88 362.03,472.08 362.73,473.26 363.44,474.42 364.15,475.56 364.85,476.68 365.56,477.77 366.27,478.84 366.98,479.89 367.68,480.91 368.39,481.92 369.1,482.9 369.81,483.86 370.51,484.79 371.22,485.7 371.93,486.59 372.63,487.46 373.34,488.3 374.05,489.12 374.76,489.92 375.46,490.69 376.17,491.44 376.88,492.17 377.59,492.87 378.29,493.54 379,494.2 379.71,494.83 380.42,495.44 381.12,496.02 381.83,496.58 382.54,497.11 383.24,497.62 383.95,498.1 384.66,498.57 385.37,499 386.07,499.42 386.78,499.8 387.49,500.17 388.2,500.51 388.9,500.82 389.61,501.11 390.32,501.38 391.02,501.62 391.73,501.83 392.44,502.02 393.15,502.19 393.85,502.33 394.56,502.45 395.27,502.54 395.98,502.61 396.68,502.65 397.39,502.67 398.1,502.67 398.81,502.63 399.51,502.58 400.22,502.5 400.93,502.39 401.63,502.26 402.34,502.11 403.05,501.93 403.76,501.72 404.46,501.49 405.17,501.24 405.88,500.96 406.59,500.66 407.29,500.33 408,499.98 408.71,499.6 409.42,499.2 410.12,498.78 410.83,498.33 411.54,497.85 412.24,497.36 412.95,496.83 413.66,496.29 414.37,495.72 415.07,495.12 415.78,494.5 416.49,493.86 417.2,493.19 417.9,492.5 418.61,491.79 419.32,491.05 420.02,490.29 420.73,489.51 421.44,488.7 422.15,487.87 422.85,487.01 423.56,486.13 424.27,485.23 424.98,484.31 425.68,483.36 426.39,482.39 427.1,481.4 427.81,480.38 428.51,479.34 429.22,478.28 429.93,477.2 430.63,476.1 431.34,474.97 432.05,473.82 432.76,472.65 433.46,471.46 434.17,470.24 434.88,469.01 435.59,467.75 436.29,466.47 437,465.17 437.71,463.85 438.41,462.51 439.12,461.15 439.83,459.77 440.54,458.36 441.24,456.94 441.95,455.5 442.66,454.03 443.37,452.55 444.07,451.04 444.78,449.52 445.49,447.98 446.2,446.42 446.9,444.84 447.61,443.24 448.32,441.62 449.02,439.98 449.73,438.33 450.44,436.65 451.15,434.96 451.85,433.25 452.56,431.52 453.27,429.78 453.98,428.01 454.68,426.23 455.39,424.44 456.1,422.62 456.8,420.79 457.51,418.94 458.22,417.08 458.93,415.2 459.63,413.3 460.34,411.39 461.05,409.46 461.76,407.52 462.46,405.56 463.17,403.59 463.88,401.6 464.59,399.59 465.29,397.58 466,395.55 466.71,393.5 467.41,391.44 468.12,389.37 468.83,387.28 469.54,385.18 470.24,383.07 470.95,380.94 471.66,378.8 472.37,376.65 473.07,374.49 473.78,372.32 474.49,370.13 475.2,367.93 475.9,365.72 476.61,363.5 477.32,361.27 478.02,359.03 478.73,356.78 479.44,354.52 480.15,352.24 480.85,349.96 481.56,347.67 482.27,345.37 482.98,343.06 483.68,340.74 484.39,338.41 485.1,336.08 485.8,333.74 486.51,331.38 487.22,329.02 487.93,326.66 488.63,324.28 489.34,321.9 490.05,319.52 490.76,317.12 491.46,314.72 492.17,312.32 492.88,309.91 493.59,307.49 494.29,305.07 495,302.64 495.71,300.21 496.41,297.77 497.12,295.33 497.83,292.89 498.54,290.44 499.24,287.99 499.95,285.53 500.66,283.07 501.37,280.61 502.07,278.15 502.78,275.68 503.49,273.21 504.19,270.74 504.9,268.27 505.61,265.8 506.32,263.33 507.02,260.85 507.73,258.38 508.44,255.9"/>
</g>
</g>
<g clip-path="url(#c0)">
<g fill="none" stroke-linecap="butt" stroke-width="0.66">
<path d="M64.25,502.67l0,-495.11"/>
<path d="M64.25,502.67l4,0M64.25,477.92l4,0M64.25,453.16l4,0M64.25,428.4l4,0M64.25,403.65l4,0M64.25,378.89l4,0M64.25,354.14l4,0M64.25,329.38l4,0M64.25,304.62l4,0M64.25,279.87l4,0M64.25,255.11l4,0M64.25,230.36l4,0M64.25,205.6l4,0M64.25,180.85l4,0M64.25,156.09l4,0M64.25,131.33l4,0M64.25,106.58l4,0M64.25,81.82l4,0M64.25,57.07l4,0M64.25,32.31l4,0M64.25,7.55l4,0"/>
<path d="M64.25,502.67l8,0M64.25,378.89l8,0M64.25,255.11l8,0M64.25,131.33l8,0M64.25,7.55l8,0"/>
</g>
<g fill="none" stroke-width="0.1">
<g transform="matrix(0 -1 1 0 17.4 260.4)">
<path d="m4.03,1.78l0.63,-1.61l-3.62,-8.89l-1.1,0l0,-0.97l4.46,0l0,0.97l-1.55,0l2.72,6.67l2.73,-6.67l-1.45,0l0,-0.97l3.64,0l0,0.97l-1.08,0l-4.44,10.92c-0.3,0.75,-0.64,1.26,-1.01,1.54c-0.37,0.27,-0.89,0.41,-1.57,0.41c-0.28,0,-0.58,-0.02,-0.88,-0.07c-0.3,-0.04,-0.6,-0.11,-0.9,-0.2l0,-1.85l0.85,0c0.03,0.41,0.14,0.71,0.31,0.89c0.17,0.17,0.44,0.26,0.8,0.26c0.33,0,0.6,-0.09,0.8,-0.27c0.2,-0.18,0.41,-0.55,0.64,-1.11" fill="#000000" stroke="none" fill-opacity="1"/>
</g>
<path d="m34.26,503.17l11.7,0l0,1.47l-11.7,0l0,-1.47m16.34,6.6l0,-0.96l2.37,0l0,-11.34l-2.74,1.77l0,-1.19l3.32,-2.15l1.26,0l0,12.91l2.37,0l0,0.96l-6.58,0" fill="#000000" stroke="none" fill-opacity="1"/>
<path d="m16.42,379.39l11.7,0l0,1.47l-11.7,0l0,-1.47m19.62,5.96c0.93,0,1.62,-0.51,2.09,-1.53c0.46,-1.02,0.69,-2.56,0.69,-4.62c0,-2.06,-0.23,-3.61,-0.69,-4.63c-0.46,-1.02,-1.16,-1.53,-2.09,-1.53c-0.93,0,-1.62,0.51,-2.09,1.53c-0.46,1.02,-0.69,2.56,-0.69,4.63c0,2.06,0.23,3.6,0.69,4.62c0.46,1.02,1.15,1.53,2.09,1.53m0,0.9c-1.47,0,-2.63,-0.62,-3.46,-1.86c-0.83,-1.24,-1.24,-2.97,-1.24,-5.2c0,-2.23,0.41,-3.97,1.24,-5.21c0.83,-1.24,1.98,-1.86,3.46,-1.86c1.48,0,2.64,0.62,3.47,1.86c0.82,1.24,1.24,2.97,1.24,5.21c0,2.22,-0.41,3.96,-1.24,5.2c-0.82,1.24,-1.98,1.86,-3.47,1.86m6.62,1.55c0.57,-0.41,0.99,-0.91,1.26,-1.48c0.26,-0.56,0.4,-1.25,0.4,-2.06l0,-0.33l1.79,0c-0.04,1.04,-0.29,1.93,-0.73,2.68c-0.44,0.74,-1.1,1.39,-1.99,1.93l-0.73,-0.72m14.67,-15.45l0,1.49l-6.24,0l0,3.9c0.31,-0.21,0.68,-0.38,1.1,-0.49c0.42,-0.1,0.89,-0.16,1.42,-0.16c1.47,0,2.63,0.4,3.48,1.22c0.85,0.81,1.27,1.92,1.27,3.34c0,1.44,-0.43,2.56,-1.29,3.37c-0.86,0.8,-2.07,1.2,-3.62,1.2c-0.62,0,-1.26,-0.07,-1.92,-0.22c-0.65,-0.15,-1.32,-0.38,-2.01,-0.69l0,-2.64l1.03,0c0.05,0.86,0.33,1.52,0.82,1.98c0.49,0.45,1.19,0.68,2.08,0.68c0.96,0,1.7,-0.31,2.21,-0.95c0.51,-0.63,0.77,-1.54,0.77,-2.72c0,-1.18,-0.25,-2.08,-0.77,-2.71c-0.51,-0.62,-1.25,-0.94,-2.22,-0.94c-0.54,0,-1.03,0.09,-1.44,0.29c-0.41,0.19,-0.78,0.49,-1.1,0.9l-0.78,0l0,-6.84l7.21,0" fill="#000000" stroke="none" fill-opacity="1"/>
<path d="m53.89,261.57c0.93,0,1.62,-0.51,2.09,-1.53c0.46,-1.02,0.69,-2.56,0.69,-4.62c0,-2.06,-0.23,-3.61,-0.69,-4.63c-0.46,-1.02,-1.16,-1.53,-2.09,-1.53c-0.93,0,-1.62,0.51,-2.09,1.53c-0.46,1.02,-0.69,2.56,-0.69,4.63c0,2.06,0.23,3.6,0.69,4.62c0.46,1.02,1.15,1.53,2.09,1.53m0,0.9c-1.47,0,-2.63,-0.62,-3.46,-1.86c-0.83,-1.24,-1.24,-2.97,-1.24,-5.2c0,-2.23,0.41,-3.97,1.24,-5.21c0.83,-1.24,1.98,-1.86,3.46,-1.86c1.48,0,2.64,0.62,3.47,1.86c0.82,1.24,1.24,2.97,1.24,5.21c0,2.22,-0.41,3.96,-1.24,5.2c-0.82,1.24,-1.98,1.86,-3.47,1.86" fill="#000000" stroke="none" fill-opacity="1"/>
<path d="m36.05,137.79c0.93,0,1.62,-0.51,2.09,-1.53c0.46,-1.02,0.69,-2.56,0.69,-4.62c0,-2.06,-0.23,-3.61,-0.69,-4.63c-0.46,-1.02,-1.16,-1.53,-2.09,-1.53c-0.93,0,-1.62,0.51,-2.09,1.53c-0.46,1.02,-0.69,2.56,-0.69,4.63c0,2.06,0.23,3.6,0.69,4.62c0.46,1.02,1.15,1.53,2.09,1.53m0,0.9c-1.47,0,-2.63,-0.62,-3.46,-1.86c-0.83,-1.24,-1.24,-2.97,-1.24,-5.2c0,-2.23,0.41,-3.97,1.24,-5.21c0.83,-1.24,1.98,-1.86,3.46,-1.86c1.48,0,2.64,0.62,3.47,1.86c0.82,1.24,1.24,2.97,1.24,5.21c0,2.22,-0.41,3.96,-1.24,5.2c-0.82,1.24,-1.98,1.86,-3.47,1.86m6.62,1.55c0.57,-0.41,0.99,-0.91,1.26,-1.48c0.26,-0.56,0.4,-1.25,0.4,-2.06l0,-0.33l1.79,0c-0.04,1.04,-0.29,1.93,-0.73,2.68c-0.44,0.74,-1.1,1.39,-1.99,1.93l-0.73,-0.72m14.67,-15.45l0,1.49l-6.24,0l0,3.9c0.31,-0.21,0.68,-0.38,1.1,-0.49c0.42,-0.1,0.89,-0.16,1.42,-0.16c1.47,0,2.63,0.4,3.48,1.22c0.85,0.81,1.27,1.92,1.27,3.34c0,1.44,-0.43,2.56,-1.29,3.37c-0.86,0.8,-2.07,1.2,-3.62,1.2c-0.62,0,-1.26,-0.07,-1.92,-0.22c-0.65,-0.15,-1.32,-0.38,-2.01,-0.69l0,-2.64l1.03,0c0.05,0.86,0.33,1.52,0.82,1.98c0.49,0.45,1.19,0.68,2.08,0.68c0.96,0,1.7,-0.31,2.21,-0.95c0.51,-0.63,0.77,-1.54,0.77,-2.72c0,-1.18,-0.25,-2.08,-0.77,-2.71c-0.51,-0.62,-1.25,-0.94,-2.22,-0.94c-0.54,0,-1.03,0.09,-1.44,0.29c-0.41,0.19,-0.78,0.49,-1.1,0.9l-0.78,0l0,-6.84l7.21,0" fill="#000000" stroke="none" fill-opacity="1"/>
<path d="m50.61,18.57l0,-0.96l2.37,0l0,-11.34l-2.74,1.77l0,-1.19l3.32,-2.15l1.26,0l0,12.91l2.37,0l0,0.96l-6.58,0" fill="#000000" stroke="none" fill-opacity="1"/>
</g>
<g fill="none" stroke-linecap="butt" stroke-width="0.66">
<path d="M64.25,502.67l495.11,0"/>
<path d="M64.25,502.67l0,-4M99.61,502.67l0,-4M134.98,502.67l0,-4M170.34,502.67l0,-4M205.71,502.67l0,-4M241.07,502.67l0,-4M276.44,502.67l0,-4M311.81,502.67l0,-4M347.17,502.67l0,-4M382.54,502.67l0,-4M417.9,502.67l0,-4M453.27,502.67l0,-4M488.63,502.67l0,-4M524,502.67l0,-4M559.37,502.67l0,-4"/>
<path d="M64.25,502.67l0,-8M134.98,502.67l0,-8M205.71,502.67l0,-8M276.44,502.67l0,-8M347.17,502.67l0,-8M417.9,502.67l0,-8M488.63,502.67l0,-8M559.37,502.67l0,-8"/>
</g>
<g fill="none" stroke-width="0.1">
<path d="m311.97,544.75l2.03,-2.8l-1.3,0l0,-0.97l3.73,0l0,0.97l-1.28,0l-2.6,3.58l3.03,4.17l1.26,0l0,0.96l-4.48,0l0,-0.96l1.23,0l-2.1,-2.9l-2.11,2.9l1.26,0l0,0.96l-3.68,0l0,-0.96l1.28,0l2.67,-3.68l-2.94,-4.07l-1.19,0l0,-0.97l4.33,0l0,0.97l-1.15,0l2.03,2.8" fill="#000000" stroke="none" fill-opacity="1"/>
<path d="m64.24,523.83c0.93,0,1.62,-0.51,2.09,-1.53c0.46,-1.02,0.69,-2.56,0.69,-4.62c0,-2.06,-0.23,-3.61,-0.69,-4.63c-0.46,-1.02,-1.16,-1.53,-2.09,-1.53c-0.93,0,-1.62,0.51,-2.09,1.53c-0.46,1.02,-0.69,2.56,-0.69,4.63c0,2.06,0.23,3.6,0.69,4.62c0.46,1.02,1.15,1.53,2.09,1.53m0,0.9c-1.47,0,-2.63,-0.62,-3.46,-1.86c-0.83,-1.24,-1.24,-2.97,-1.24,-5.2c0,-2.23,0.41,-3.97,1.24,-5.21c0.83,-1.24,1.98,-1.86,3.46,-1.86c1.48,0,2.64,0.62,3.47,1.86c0.82,1.24,1.24,2.97,1.24,5.21c0,2.22,-0.41,3.96,-1.24,5.2c-0.82,1.24,-1.98,1.86,-3.47,1.86" fill="#000000" stroke="none" fill-opacity="1"/>
<path d="m131.69,524.47l0,-0.96l2.37,0l0,-11.34l-2.74,1.77l0,-1.19l3.32,-2.15l1.26,0l0,12.91l2.37,0l0,0.96l-6.58,0" fill="#000000" stroke="none" fill-opacity="1"/>
<path d="m202.15,514.09l-1.02,0l0,-2.42c0.65,-0.34,1.3,-0.61,1.96,-0.79c0.66,-0.18,1.3,-0.27,1.94,-0.27c1.41,0,2.53,0.34,3.35,1.03c0.82,0.68,1.23,1.62,1.23,2.8c0,1.33,-0.93,2.92,-2.79,4.78c-0.14,0.13,-0.25,0.24,-0.32,0.32l-3.44,3.44l5.68,0l0,-1.68l1.06,0l0,3.17l-8.79,0l0,-0.99l4.13,-4.12c0.91,-0.91,1.56,-1.75,1.95,-2.51c0.38,-0.76,0.58,-1.56,0.58,-2.4c0,-0.91,-0.23,-1.63,-0.71,-2.15c-0.47,-0.51,-1.13,-0.77,-1.97,-0.77c-0.86,0,-1.54,0.21,-2.01,0.64c-0.47,0.43,-0.75,1.08,-0.84,1.94" fill="#000000" stroke="none" fill-opacity="1"/>
<path d="m272.31,511.41c0.71,-0.26,1.39,-0.47,2.05,-0.61c0.65,-0.14,1.26,-0.21,1.83,-0.21c1.33,0,2.37,0.28,3.12,0.86c0.74,0.57,1.12,1.37,1.12,2.39c0,0.82,-0.25,1.5,-0.77,2.05c-0.51,0.55,-1.25,0.92,-2.2,1.11c1.11,0.15,1.98,0.56,2.6,1.21c0.61,0.65,0.92,1.5,0.92,2.54c0,1.27,-0.42,2.24,-1.28,2.92c-0.85,0.67,-2.08,1.01,-3.69,1.01c-0.71,0,-1.4,-0.07,-2.08,-0.22c-0.67,-0.15,-1.35,-0.38,-2.02,-0.69l0,-2.64l1.02,0c0.06,0.87,0.35,1.53,0.88,1.98c0.52,0.45,1.27,0.67,2.23,0.67c0.93,0,1.66,-0.26,2.2,-0.8c0.53,-0.53,0.8,-1.27,0.8,-2.21c0,-1.07,-0.27,-1.88,-0.83,-2.43c-0.55,-0.55,-1.36,-0.82,-2.43,-0.82l-0.86,0l0,-0.93l0.45,0c1.06,0,1.86,-0.22,2.39,-0.66c0.53,-0.44,0.79,-1.1,0.79,-1.99c0,-0.79,-0.21,-1.4,-0.65,-1.83c-0.43,-0.42,-1.06,-0.63,-1.88,-0.63c-0.82,0,-1.45,0.19,-1.91,0.58c-0.45,0.38,-0.72,0.96,-0.79,1.73l-1.02,0l0,-2.4" fill="#000000" stroke="none" fill-opacity="1"/>
<path d="m347.75,519.85l0,-7.25l-4.65,7.25l4.65,0m4.01,4.62l-6.2,0l0,-0.96l2.19,0l0,-2.67l-5.95,0l0,-0.99l5.97,-9.24l1.8,0l0,9.25l2.6,0l0,0.97l-2.6,0l0,2.67l2.19,0l0,0.96" fill="#000000" stroke="none" fill-opacity="1"/>
<path d="m421.36,510.84l0,1.49l-6.24,0l0,3.9c0.31,-0.21,0.68,-0.38,1.1,-0.49c0.42,-0.1,0.89,-0.16,1.42,-0.16c1.47,0,2.63,0.4,3.48,1.22c0.85,0.81,1.27,1.92,1.27,3.34c0,1.44,-0.43,2.56,-1.29,3.37c-0.86,0.8,-2.07,1.2,-3.62,1.2c-0.62,0,-1.26,-0.07,-1.92,-0.22c-0.65,-0.15,-1.32,-0.38,-2.01,-0.69l0,-2.64l1.03,0c0.05,0.86,0.33,1.52,0.82,1.98c0.49,0.45,1.19,0.68,2.08,0.68c0.96,0,1.7,-0.31,2.21,-0.95c0.51,-0.63,0.77,-1.54,0.77,-2.72c0,-1.18,-0.25,-2.08,-0.77,-2.71c-0.51,-0.62,-1.25,-0.94,-2.22,-0.94c-0.54,0,-1.03,0.09,-1.44,0.29c-0.41,0.19,-0.78,0.49,-1.1,0.9l-0.78,0l0,-6.84l7.21,0" fill="#000000" stroke="none" fill-opacity="1"/>
<path d="m488.8,523.83c0.85,0,1.51,-0.31,1.98,-0.94c0.46,-0.63,0.69,-1.53,0.69,-2.71c0,-1.18,-0.23,-2.08,-0.69,-2.71c-0.46,-0.63,-1.12,-0.94,-1.98,-0.94c-0.86,0,-1.53,0.3,-1.98,0.91c-0.45,0.6,-0.68,1.48,-0.68,2.63c0,1.21,0.23,2.14,0.69,2.79c0.46,0.65,1.12,0.97,1.98,0.97m-2.97,-6.86c0.41,-0.45,0.88,-0.79,1.4,-1.02c0.52,-0.22,1.11,-0.33,1.77,-0.33c1.35,0,2.43,0.4,3.21,1.22c0.78,0.81,1.18,1.92,1.18,3.34c0,1.38,-0.42,2.48,-1.27,3.31c-0.84,0.83,-1.98,1.24,-3.4,1.24c-1.54,0,-2.72,-0.57,-3.55,-1.72c-0.82,-1.14,-1.24,-2.78,-1.24,-4.91c0,-2.38,0.48,-4.23,1.46,-5.54c0.97,-1.3,2.36,-1.96,4.14,-1.96c0.48,0,0.98,0.04,1.51,0.13c0.52,0.09,1.07,0.22,1.62,0.41l0,2.24l-1.03,0c-0.07,-0.61,-0.3,-1.08,-0.7,-1.4c-0.39,-0.32,-0.92,-0.48,-1.59,-0.48c-1.18,0,-2.06,0.44,-2.63,1.34c-0.57,0.89,-0.87,2.27,-0.89,4.12" fill="#000000" stroke="none" fill-opacity="1"/>
<path d="m563.96,511.77l-5.33,12.7l-1.36,0l5.08,-12.13l-6.3,0l0,1.67l-1.06,0l0,-3.17l8.97,0l0,0.93" fill="#000000" stroke="none" fill-opacity="1"/>
</g>
<g fill="none" stroke-linecap="butt" stroke-width="0.66">
<path d="M559.37,502.67l0,-495.11"/>
<path d="M559.37,502.67l-4,0M559.37,477.92l-4,0M559.37,453.16l-4,0M559.37,428.4l-4,0M559.37,403.65l-4,0M559.37,378.89l-4,0M559.37,354.14l-4,0M559.37,329.38l-4,0M559.37,304.62l-4,0M559.37,279.87l-4,0M559.37,255.11l-4,0M559.37,230.36l-4,0M559.37,205.6l-4,0M559.37,180.85l-4,0M559.37,156.09l-4,0M559.37,131.33l-4,0M559.37,106.58l-4,0M559.37,81.82l-4,0M559.37,57.07l-4,0M559.37,32.31l-4,0M559.37,7.55l-4,0"/>
<path d="M559.37,502.67l-8,0M559.37,378.89l-8,0M559.37,255.11l-8,0M559.37,131.33l-8,0M559.37,7.55l-8,0"/>
<path d="M64.25,7.55l495.11,0"/>
<path d="M64.25,7.55l0,4M99.61,7.55l0,4M134.98,7.55l0,4M170.34,7.55l0,4M205.71,7.55l0,4M241.07,7.55l0,4M276.44,7.55l0,4M311.81,7.55l0,4M347.17,7.55l0,4M382.54,7.55l0,4M417.9,7.55l0,4M453.27,7.55l0,4M488.63,7.55l0,4M524,7.55l0,4M559.37,7.55l0,4"/>
<path d="M64.25,7.55l0,8M134.98,7.55l0,8M205.71,7.55l0,8M276.44,7.55l0,8M347.17,7.55l0,8M417.9,7.55l0,8M488.63,7.55l0,8M559.37,7.55l0,8"/>
</g>
</g>
</g>
</svg>
